<svg width="170" height="50" viewBox="0 0 170 50" fill="none" xmlns="http://www.w3.org/2000/svg">
<path d="M65 33.9096V15.2925H79.6808V19.2553H69.5745V22.6064H76.25V26.4362H69.5745V29.9468H79.7872V33.9096H65Z" fill="#181818"/>
<path d="M90.2782 33.9096H85.4378L81.2889 15.2925H85.9963L88.2569 26.7819L91.5016 15.2925H95.7835L99.0282 26.7819L101.289 15.2925H105.837L101.688 33.9096H96.8474L93.5761 22.0479L90.2782 33.9096Z" fill="#181818"/>
<path d="M107.984 15.2925H117.213C118.153 15.2925 119.022 15.4255 119.819 15.6915C120.617 15.9397 121.3 16.2943 121.867 16.7553C122.435 17.2163 122.878 17.7748 123.197 18.4308C123.516 19.0691 123.676 19.7695 123.676 20.5319C123.676 21.2943 123.481 22.0124 123.091 22.6862C122.718 23.3422 122.204 23.9007 121.548 24.3617C122.364 24.805 123.02 25.3812 123.516 26.0904C124.013 26.7996 124.261 27.5798 124.261 28.4308C124.261 30.062 123.649 31.383 122.426 32.3936C121.202 33.4042 119.616 33.9096 117.665 33.9096H107.984V15.2925ZM116.92 19.0425H112.559V22.7128H116.92C117.577 22.7128 118.1 22.5443 118.49 22.2074C118.897 21.8706 119.101 21.4273 119.101 20.8776C119.101 20.328 118.897 19.8847 118.49 19.5479C118.1 19.211 117.577 19.0425 116.92 19.0425ZM117.319 30.1596C118.029 30.1596 118.587 29.9823 118.995 29.6276C119.42 29.273 119.633 28.7943 119.633 28.1915C119.633 27.5886 119.42 27.1099 118.995 26.7553C118.587 26.4007 118.029 26.2234 117.319 26.2234H112.559V30.1596H117.319Z" fill="#181818"/>
<path d="M137.056 32.5798L130.939 21.1702V33.9096H126.736V15.2926H132.508L137.109 24.0691L141.71 15.2926H147.481V33.9096H143.173V21.2234L137.056 32.5798Z" fill="#00903D"/>
<path d="M169.808 24.6011C169.808 25.8954 169.56 27.1188 169.063 28.2713C168.584 29.406 167.919 30.4078 167.068 31.2766L168.877 33.5638L164.994 35L163.771 33.4574C163.168 33.6879 162.538 33.8652 161.882 33.9894C161.244 34.1312 160.57 34.2021 159.861 34.2021C158.478 34.2021 157.175 33.9539 155.951 33.4574C154.728 32.961 153.673 32.2872 152.787 31.4362C151.9 30.5674 151.2 29.5479 150.685 28.3777C150.171 27.1897 149.914 25.9309 149.914 24.6011C149.914 23.2713 150.171 22.0213 150.685 20.8511C151.2 19.6631 151.9 18.6436 152.787 17.7926C153.673 16.9238 154.728 16.2411 155.951 15.7447C157.175 15.2482 158.478 15 159.861 15C161.244 15 162.547 15.2482 163.771 15.7447C164.994 16.2411 166.049 16.9238 166.935 17.7926C167.822 18.6436 168.522 19.6631 169.037 20.8511C169.551 22.0213 169.808 23.2713 169.808 24.6011ZM163.106 26.2234L164.223 27.6596C164.506 27.234 164.719 26.7642 164.861 26.25C165.021 25.7181 165.1 25.1684 165.1 24.6011C165.1 23.8387 164.967 23.1294 164.701 22.4734C164.435 21.7996 164.063 21.2234 163.584 20.7447C163.123 20.266 162.574 19.8936 161.935 19.6277C161.297 19.344 160.606 19.2021 159.861 19.2021C159.116 19.2021 158.425 19.344 157.787 19.6277C157.148 19.8936 156.59 20.266 156.111 20.7447C155.65 21.2234 155.287 21.7996 155.021 22.4734C154.755 23.1294 154.622 23.8387 154.622 24.6011C154.622 25.3635 154.755 26.0816 155.021 26.7553C155.287 27.4113 155.65 27.9787 156.111 28.4574C156.59 28.9362 157.148 29.3174 157.787 29.6011C158.425 29.867 159.116 30 159.861 30C160.038 30 160.224 29.9911 160.419 29.9734C160.615 29.9557 160.801 29.9291 160.978 29.8936L159.223 27.6596L163.106 26.2234Z" fill="#00903D"/>
<g clip-path="url(#clip0)">
<path d="M9.70157 34.9177L22.7746 49.9733L36.7114 44.3171L30.095 27.2816L9.70157 34.9177Z" fill="#21A952"/>
<path d="M-3.05176e-05 15.4783L6.39334 14.0635L14.5049 0.846802L-3.05176e-05 15.4783Z" fill="#C4E22C"/>
<path d="M-3.05176e-05 15.4798L0.792736 36.0477L9.70155 34.9176L6.39334 14.0649L-3.05176e-05 15.4798Z" fill="#82CE40"/>
<path d="M0.792755 36.0477L15.7348 49.4764L22.7746 49.9732L9.70157 34.9176L0.792755 36.0477Z" fill="#40B93C"/>
<path d="M14.5049 0.846802L20.6119 8.12693L6.38885 14.065L14.5049 0.846802Z" fill="#82CE40"/>
<path d="M20.6119 8.12695L30.095 27.2816L9.70158 34.9176L6.38885 14.0635L20.6119 8.12695Z" fill="#40B93C"/>
<path d="M22.7746 49.9732L36.0632 47.9237L36.7114 44.317L22.7746 49.9732Z" fill="#197746"/>
<path d="M14.514 0.846802L33.1183 2.04953L20.6119 8.12693L14.514 0.846802Z" fill="#53C049"/>
<path d="M47.4092 18.0913L33.1182 2.0495L20.6149 8.12541L30.095 27.2815L47.4092 18.0913Z" fill="#2DAD57"/>
<path d="M47.4092 18.0913L48.0602 37.6746L36.7114 44.317L30.095 27.2816L47.4092 18.0913Z" fill="#2B9768"/>
<path d="M48.0602 37.6746L36.0648 47.9237L36.7114 44.3169L48.0602 37.6746Z" fill="#357835"/>
<path d="M14.514 0.846802L33.1182 2.04953L35.6322 0L14.514 0.846802Z" fill="#40B93C"/>
<path d="M49.9262 14.065L35.6307 0L33.1182 2.04953L47.4092 18.0913L49.9262 14.065Z" fill="#09A048"/>
<path d="M49.9261 14.0649L50 33.4954L48.0602 37.6642L47.4092 18.0913L49.9261 14.0649Z" fill="#0B895A"/>
<path d="M9.70157 34.9177L22.7746 49.9733L36.7114 44.3171L30.095 27.2816L9.70157 34.9177Z" fill="#21A952"/>
<path d="M-3.05176e-05 15.4783L6.39334 14.0635L14.5049 0.846802L-3.05176e-05 15.4783Z" fill="#C4E22C"/>
<path d="M-3.05176e-05 15.4798L0.792736 36.0477L9.70155 34.9176L6.39334 14.0649L-3.05176e-05 15.4798Z" fill="#82CE40"/>
<path d="M0.792755 36.0477L15.7348 49.4764L22.7746 49.9732L9.70157 34.9176L0.792755 36.0477Z" fill="#40B93C"/>
<path d="M14.5049 0.846802L20.6119 8.12693L6.38885 14.065L14.5049 0.846802Z" fill="#82CE40"/>
<path d="M20.6119 8.12695L30.095 27.2816L9.70158 34.9176L6.38885 14.0635L20.6119 8.12695Z" fill="#40B93C"/>
<path d="M22.7746 49.9732L36.0632 47.9237L36.7114 44.317L22.7746 49.9732Z" fill="#197746"/>
<path d="M14.514 0.846802L33.1183 2.04953L20.6119 8.12693L14.514 0.846802Z" fill="#53C049"/>
<path d="M47.4092 18.0913L33.1182 2.0495L20.6149 8.12541L30.095 27.2815L47.4092 18.0913Z" fill="#2DAD57"/>
<path d="M47.4092 18.0913L48.0602 37.6746L36.7114 44.317L30.095 27.2816L47.4092 18.0913Z" fill="#2B9768"/>
<path d="M48.0602 37.6746L36.0648 47.9237L36.7114 44.3169L48.0602 37.6746Z" fill="#357835"/>
<path d="M14.514 0.846802L33.1182 2.04953L35.6322 0L14.514 0.846802Z" fill="#40B93C"/>
<path d="M49.9262 14.065L35.6307 0L33.1182 2.04953L47.4092 18.0913L49.9262 14.065Z" fill="#09A048"/>
<path d="M49.9261 14.0649L50 33.4954L48.0602 37.6642L47.4092 18.0913L49.9261 14.0649Z" fill="#0B895A"/>
</g>
<defs>
<clipPath id="clip0">
<rect width="50" height="50" fill="white"/>
</clipPath>
</defs>
</svg>
