<svg fill="none" height="50" viewBox="0 0 197 50" width="197" xmlns="http://www.w3.org/2000/svg" xmlns:xlink="http://www.w3.org/1999/xlink"><clipPath id="a"><path d="m27 0h50v50h-50z"/></clipPath><path d="m92 12h105v26h-105z" fill="#fc0"/><g fill="#181818"><path d="m92 33.9096v-18.617h14.681v3.9627h-10.1065v3.3511h6.6755v3.8298h-6.6755v3.5106h10.2125v3.9628z"/><path d="m117.278 33.9096h-4.84l-4.149-18.617h4.707l2.261 11.4893 3.245-11.4893h4.282l3.244 11.4893 2.261-11.4893h4.548l-4.149 18.617h-4.841l-3.271-11.8617z"/><path d="m134.984 15.2926h9.229c.94 0 1.809.1329 2.606.3989.798.2482 1.481.6028 2.048 1.0638.568.461 1.011 1.0195 1.33 1.6756.319.6383.479 1.3386.479 2.101s-.195 1.4805-.585 2.1543c-.373.656-.887 1.2145-1.543 1.6755.816.4433 1.472 1.0195 1.968 1.7287.497.7092.745 1.4894.745 2.3405 0 1.6312-.612 2.9521-1.835 3.9627-1.224 1.0107-2.81 1.516-4.761 1.516h-9.681zm8.936 3.75h-4.361v3.6702h4.361c.657 0 1.18-.1685 1.57-.5053.407-.3369.611-.7802.611-1.3298 0-.5497-.204-.9929-.611-1.3298-.39-.3369-.913-.5053-1.57-.5053zm.399 11.117c.71 0 1.268-.1773 1.676-.5319.425-.3546.638-.8334.638-1.4362s-.213-1.0816-.638-1.4362c-.408-.3546-.966-.5319-1.676-.5319h-4.76v3.9362z"/></g><path d="m164.056 32.5798-6.117-11.4096v12.7394h-4.203v-18.617h5.772l4.601 8.7765 4.601-8.7765h5.771v18.617h-4.308v-12.6862z" fill="#00903d"/><path d="m196.808 24.6011c0 1.2943-.248 2.5177-.745 3.6702-.479 1.1347-1.144 2.1365-1.995 3.0053l1.809 2.2872-3.883 1.4362-1.223-1.5426c-.603.2305-1.233.4078-1.889.532-.638.1418-1.312.2127-2.021.2127-1.383 0-2.686-.2482-3.91-.7447-1.223-.4964-2.278-1.1702-3.164-2.0212-.887-.8688-1.587-1.8883-2.102-3.0585-.514-1.188-.771-2.4468-.771-3.7766s.257-2.5798.771-3.75c.515-1.188 1.215-2.2075 2.102-3.0585.886-.8688 1.941-1.5515 3.164-2.0479 1.224-.4965 2.527-.7447 3.91-.7447s2.686.2482 3.91.7447c1.223.4964 2.278 1.1791 3.164 2.0479.887.851 1.587 1.8705 2.102 3.0585.514 1.1702.771 2.4202.771 3.75zm-6.702 1.6223 1.117 1.4362c.283-.4256.496-.8954.638-1.4096.16-.5319.239-1.0816.239-1.6489 0-.7624-.133-1.4717-.399-2.1277-.266-.6738-.638-1.25-1.117-1.7287-.461-.4787-1.01-.8511-1.649-1.117-.638-.2837-1.329-.4256-2.074-.4256s-1.436.1419-2.074.4256c-.639.2659-1.197.6383-1.676 1.117-.461.4787-.824 1.0549-1.09 1.7287-.266.656-.399 1.3653-.399 2.1277s.133 1.4805.399 2.1542c.266.656.629 1.2234 1.09 1.7021.479.4788 1.037.86 1.676 1.1437.638.2659 1.329.3989 2.074.3989.177 0 .363-.0089.558-.0266.196-.0177.382-.0443.559-.0798l-1.755-2.234z" fill="#00903d"/><g clip-path="url(#a)"><path d="m36.7016 34.9176 13.073 15.0556 13.9368-5.6562-6.6164-17.0354z" fill="#21a952"/><path d="m27 15.4783 6.3933-1.4148 8.1116-13.216683z" fill="#c4e22c"/><path d="m27 15.4798.7927 20.5679 8.9089-1.1301-3.3083-20.8527z" fill="#82ce40"/><path d="m27.7928 36.0477 14.942 13.4287 7.0398.4968-13.073-15.0556z" fill="#40b93c"/><path d="m41.5049.846817 6.107 7.280133-14.2231 5.93805z" fill="#82ce40"/><path d="m47.6119 8.12695 9.4831 19.15465-20.3934 7.636-3.3128-20.8541z" fill="#40b93c"/><path d="m49.7746 49.9732 13.2886-2.0495.6482-3.6067z" fill="#197746"/><path d="m41.514.846817 18.6043 1.202723-12.5064 6.07741z" fill="#53c049"/><path d="m74.4092 18.0913-14.291-16.04177-12.5033 6.07592 9.4801 19.15615z" fill="#2dad57"/><path d="m74.4092 18.0913.651 19.5833-11.3488 6.6424-6.6164-17.0354z" fill="#2b9768"/><path d="m75.0602 37.6746-11.9954 10.2491.6466-3.6068z" fill="#357835"/><path d="m41.514.846802 18.6042 1.202728 2.514-2.04953z" fill="#40b93c"/><path d="m76.9262 14.065-14.2955-14.065-2.5125 2.04953 14.291 16.04177z" fill="#09a048"/><path d="m76.9261 14.0649.0739 19.4305-1.9398 4.1688-.651-19.5729z" fill="#0b895a"/><path d="m36.7016 34.9176 13.073 15.0556 13.9368-5.6562-6.6164-17.0354z" fill="#21a952"/><path d="m27 15.4783 6.3933-1.4148 8.1116-13.216683z" fill="#c4e22c"/><path d="m27 15.4798.7927 20.5679 8.9089-1.1301-3.3083-20.8527z" fill="#82ce40"/><path d="m27.7928 36.0477 14.942 13.4287 7.0398.4968-13.073-15.0556z" fill="#40b93c"/><path d="m41.5049.846817 6.107 7.280133-14.2231 5.93805z" fill="#82ce40"/><path d="m47.6119 8.12695 9.4831 19.15465-20.3934 7.636-3.3128-20.8541z" fill="#40b93c"/><path d="m49.7746 49.9732 13.2886-2.0495.6482-3.6067z" fill="#197746"/><path d="m41.514.846817 18.6043 1.202723-12.5064 6.07741z" fill="#53c049"/><path d="m74.4092 18.0913-14.291-16.04177-12.5033 6.07592 9.4801 19.15615z" fill="#2dad57"/><path d="m74.4092 18.0913.651 19.5833-11.3488 6.6424-6.6164-17.0354z" fill="#2b9768"/><path d="m75.0602 37.6746-11.9954 10.2491.6466-3.6068z" fill="#357835"/><path d="m41.514.846802 18.6042 1.202728 2.514-2.04953z" fill="#40b93c"/><path d="m76.9262 14.065-14.2955-14.065-2.5125 2.04953 14.291 16.04177z" fill="#09a048"/><path d="m76.9261 14.0649.0739 19.4305-1.9398 4.1688-.651-19.5729z" fill="#0b895a"/></g><path d="m12.82 17.2834-7.417 7.4332 7.417 7.4332-2.2834 2.2834-9.716593-9.7166 9.716593-9.7166z" fill="#181818"/><path d="m92 38h105v4h-105z" fill="#181818"/></svg>