<svg width="36" height="24" viewBox="0 0 36 24" fill="none" xmlns="http://www.w3.org/2000/svg">
<g clip-path="url(#clip0)">
<path d="M36 19.7998H0V23.9998H36V19.7998Z" fill="#009966"/>
<path d="M36 0H0V4.2H36V0Z" fill="#009966"/>
<path d="M36 4.19971H0V5.39971H36V4.19971Z" fill="black"/>
<path d="M36 18.6001H0V19.8001H36V18.6001Z" fill="black"/>
<path d="M36 5.3999H0V18.5999H36V5.3999Z" fill="#000099"/>
<path d="M17.4 5.7002C11.4 7.5002 11.7 12.0002 13.62 16.1402L11.34 18.3002L15.48 16.8002V11.2802C16.8 9.3002 19.2 9.3002 20.52 11.2802V16.8002L24.66 18.3002L22.38 16.1402C24.3 12.0002 24.6 7.5002 18.6 5.7002L18 8.2802L17.4 5.7002Z" fill="white"/>
<path d="M20.28 11.8232L18.8797 12.9012L19.411 14.6402L18.0011 13.5719L16.5927 14.6381L17.1217 12.8999L15.72 11.8199L17.4568 11.8139L17.9989 10.0802L18.5432 11.8147L20.28 11.8232Z" fill="white"/>
</g>
<defs>
<clipPath id="clip0">
<rect width="36" height="24" fill="white"/>
</clipPath>
</defs>
</svg>
