<svg fill="none" height="48" viewBox="0 0 48 48" width="48" xmlns="http://www.w3.org/2000/svg"><path clip-rule="evenodd" d="m12 17.4415v13.5902c0 .7394.5412 1.3386 1.2867 1.3386h21.2098c.7448 0 1.2867-.6062 1.2867-1.3386v-13.5902c0-.8113-.4846-1.4415-1.2867-1.4415h-21.2098c-.833 0-1.2867.6457-1.2867 1.4415zm1.9556 1.1838c0-.3275.1982-.5148.5149-.5148.157 0 5.1454 3.1412 7.3555 4.5328.5452.3434.9219.5805 1.0143.6372l1.2062.7502c.1896-.127.3796-.245.5713-.364.1949-.1209.3916-.243.5915-.3769.1243-.0795.3994-.2568.7769-.5 2.0792-1.34 7.261-4.6793 7.4288-4.6793.3174 0 .5148.1873.5148.5148 0 .302-.5065.6022-.9247.8501-.0618.0366-.1225.0726-.1785.1068-1.8563 1.1313-3.7122 2.3319-5.5597 3.527-.8733.565-1.7448 1.1287-2.6135 1.6833l-.0441.0302c-.1661.1141-.4394.302-.6488.2702-.1493-.0231-2.8886-1.7527-5.4251-3.3542-1.8047-1.1395-3.5066-2.2141-4.0998-2.563-.0222-.0131-.0451-.026-.0681-.0391-.1986-.1131-.4119-.2345-.4119-.5113z" fill="#fff" fill-rule="evenodd"/></svg>