<svg width="48" height="48" viewBox="0 0 48 48" fill="none" xmlns="http://www.w3.org/2000/svg">
<path d="M33.4713 14.7587C31.6509 13.9253 29.7291 13.334 27.755 13C27.4848 13.4829 27.2404 13.9798 27.0227 14.4885C24.9199 14.1716 22.7815 14.1716 20.6787 14.4885C20.4609 13.9798 20.2165 13.483 19.9464 13C17.9711 13.3368 16.048 13.9295 14.2257 14.7631C10.608 20.1155 9.62731 25.335 10.1177 30.4804C12.2363 32.0457 14.6076 33.2362 17.1286 34C17.6962 33.2365 18.1985 32.4266 18.6301 31.5788C17.8103 31.2726 17.0191 30.8948 16.2655 30.4499C16.4639 30.306 16.6578 30.1578 16.8452 30.014C19.0379 31.0451 21.431 31.5798 23.854 31.5798C26.2769 31.5798 28.6701 31.0451 30.8627 30.014C31.0523 30.1687 31.2462 30.3169 31.4424 30.4499C30.6874 30.8956 29.8947 31.274 29.0735 31.5809C29.5045 32.4284 30.0069 33.2376 30.575 34C33.0981 33.2392 35.4713 32.0493 37.5903 30.4826C38.1656 24.5156 36.6074 19.344 33.4713 14.7587V14.7587ZM19.2512 27.316C17.8848 27.316 16.7559 26.076 16.7559 24.5504C16.7559 23.0249 17.8456 21.774 19.2469 21.774C20.6482 21.774 21.7683 23.0249 21.7444 24.5504C21.7204 26.076 20.6438 27.316 19.2512 27.316V27.316ZM28.4567 27.316C27.0881 27.316 25.9636 26.076 25.9636 24.5504C25.9636 23.0249 27.0532 21.774 28.4567 21.774C29.8602 21.774 30.9716 23.0249 30.9477 24.5504C30.9237 26.076 29.8493 27.316 28.4567 27.316Z" fill="white"/>
</svg>
