<svg width="48" height="48" viewBox="0 0 48 48" fill="none" xmlns="http://www.w3.org/2000/svg">
<path fill-rule="evenodd" clip-rule="evenodd" d="M24 0C37.2459 0 48 10.7541 48 24C48 37.2459 37.2459 48 24 48C10.7541 48 0 37.2459 0 24C0 10.7541 10.7541 0 24 0ZM19.7727 36.7648C30.393 36.7648 36.2 27.9645 36.2 20.3377C36.2 20.0862 36.2 19.8348 36.188 19.5953C37.3134 18.7811 38.2953 17.7634 39.0735 16.602C38.0438 17.057 36.9303 17.3683 35.7569 17.5119C36.9543 16.7935 37.8642 15.6681 38.2953 14.3152C37.1817 14.9737 35.9485 15.4525 34.6314 15.716C33.5778 14.5905 32.0812 13.8961 30.4169 13.8961C27.232 13.8961 24.6458 16.4823 24.6458 19.6672C24.6458 20.1221 24.6938 20.5651 24.8015 20.9842C20.0003 20.7447 15.7497 18.4459 12.9002 14.9497C12.4092 15.7998 12.1219 16.7935 12.1219 17.8472C12.1219 19.8467 13.1396 21.6187 14.6962 22.6484C13.7502 22.6245 12.8642 22.3611 12.086 21.9301V22.0019C12.086 24.8036 14.0735 27.1264 16.7196 27.6653C16.2407 27.7969 15.7258 27.8688 15.199 27.8688C14.8278 27.8688 14.4686 27.8329 14.1095 27.761C14.8398 30.0598 16.971 31.7242 19.4974 31.772C17.5218 33.3166 15.0314 34.2385 12.3254 34.2385C11.8584 34.2385 11.4035 34.2145 10.9485 34.1547C13.4749 35.807 16.516 36.7648 19.7727 36.7648Z" fill="#181818"/>
</svg>
