<svg fill="none" height="48" viewBox="0 0 48 48" width="48" xmlns="http://www.w3.org/2000/svg"><path clip-rule="evenodd" d="m32.5362 16.9724c.1179.0776.2114.1868.27.3152.5175 1.1174 3.0375 6.9224 2.76 11.7524 0 0-1.5 2.9024-6 3.1424-.011.0009-.0221.0009-.033 0-.0187-.0015-.037-.0064-.0542-.0137-.0162-.0068-.0311-.0161-.0445-.0273-.0094-.0079-.0181-.0166-.0258-.0264l-.9975-1.2825c-.0163-.0198-.028-.0429-.0343-.0679-.0063-.0249-.0069-.0507-.0019-.0759.0051-.0251.0156-.0488.031-.0693.0153-.0205.0351-.0374.0578-.0493l.021-.0118c.6652-.3676 2.9054-1.6062 3.729-2.8083-2.5299 1.5938-5.4225 2.52-8.4076 2.6924-2.9812-.1687-5.871-1.0899-8.3999-2.6775.8025 1.2151 3.0824 2.4675 3.75 2.8201.0123.0066.0238.0146.0341.0239.0087.0076.0166.0161.0236.0254.0153.0205.0259.0444.0309.0693.0051.0252.0044.0513-.0018.0762-.0063.0246-.0181.0478-.0343.0676l-.9975 1.2825c-.0187.0234-.0428.042-.0703.0537-.0275.012-.0575.0166-.0873.0139-4.4699-.24-6.0375-3.1426-6.0375-3.1426-.2399-4.8449 2.25-10.6499 2.7601-11.7673.0586-.1284.1521-.2376.2699-.3152 1.6617-1.0972 3.5905-1.7222 5.58-1.8074l.045.1724c-3.1875.8325-4.4325 1.905-4.8299 2.3325-.0238.0474-.0145.065.007.0713.0124.0037.0289.0037.0454.0037 3.2551-1.7698 7.9125-1.6724 7.9125-1.6724s4.635-.0974 7.875 1.6724c.01.008.0227.0117.0354.0102.0126-.0012.0242-.0078.0321-.0176.008-.01.0117-.0227.0103-.0354-.0007-.0061-.0025-.0117-.0052-.0168-.0031-.0059-.0073-.0112-.0126-.0154-.3974-.4275-1.6425-1.4699-4.83-2.3325l.045-.1724c1.9896.0852 3.9183.7102 5.58 1.8074zm-12.525 5.7676c-.4287 0-.8477.1272-1.2042.3652-.3564.2383-.6342.5767-.7983.9729-.164.396-.2069.8318-.1233 1.2522s.29.8067.5932 1.1099c.3031.303.6893.5095 1.1098.593.4204.0837.8563.0408 1.2523-.1233.3961-.1641.7346-.4419.9727-.7983.2382-.3565.3653-.7754.3653-1.2041 0-.575-.2283-1.1263-.6348-1.5327-.4065-.4065-.9578-.6348-1.5327-.6348zm9.2422 3.3716c-.2381.3564-.5766.6342-.9727.7983-.396.1641-.8319.207-1.2523.1233-.4205-.0835-.8067-.29-1.1098-.593-.3032-.3032-.5096-.6895-.5932-1.1099s-.0407-.8562.1233-1.2522c.1641-.3962.4419-.7346.7983-.9729.3565-.238.7755-.3652 1.2042-.3652.5749 0 1.1262.2283 1.5327.6348.4065.4064.6348.9577.6348 1.5327 0 .4287-.1271.8476-.3653 1.2041z" fill="#fff" fill-rule="evenodd"/></svg>