<svg width="48" height="48" viewBox="0 0 48 48" fill="none" xmlns="http://www.w3.org/2000/svg">
<g clip-path="url(#clip0)">
<path fill-rule="evenodd" clip-rule="evenodd" d="M20.25 47.7082C8.78259 45.9057 0 35.9704 0 24C0 10.7541 10.7541 0 24 0C37.2459 0 48 10.7541 48 24C48 35.9704 39.2174 45.9057 27.75 47.7082V30.9375H33.3422L34.4062 24H27.75V19.498C27.75 17.6001 28.6798 15.75 31.6612 15.75H34.6875V9.84375C34.6875 9.84375 31.941 9.375 29.3152 9.375C23.833 9.375 20.25 12.6975 20.25 18.7125V24H14.1562V30.9375H20.25V47.7082Z" fill="#181818"/>
</g>
<defs>
<clipPath id="clip0">
<rect width="48" height="48" fill="white"/>
</clipPath>
</defs>
</svg>
