<svg width="48" height="48" viewBox="0 0 48 48" fill="none" xmlns="http://www.w3.org/2000/svg">
<path d="M14.4705 18.1105C14.1538 18.1105 13.9556 18.2978 13.9556 18.6253C13.9556 18.9021 14.1689 19.0235 14.3675 19.1366C14.3905 19.1497 14.4134 19.1626 14.4356 19.1757C15.0288 19.5246 16.7307 20.5992 18.5354 21.7387C21.0719 23.3402 23.8112 25.0698 23.9605 25.0929C24.1699 25.1247 24.4432 24.9368 24.6093 24.8227C24.625 24.8119 24.6398 24.8017 24.6534 24.7925C25.5221 24.2379 26.3936 23.6742 27.2669 23.1092C29.1144 21.9141 30.9703 20.7135 32.8266 19.5822C32.8828 19.5479 32.943 19.5122 33.0051 19.4754C33.4233 19.2275 33.9298 18.9273 33.9298 18.6253C33.9298 18.2978 33.7324 18.1105 33.415 18.1105C33.2472 18.1105 28.0658 21.4496 25.9866 22.7895C25.609 23.0329 25.3336 23.2103 25.2093 23.2898C25.0094 23.4237 24.8127 23.5458 24.6178 23.6667C24.4261 23.7857 24.2361 23.9037 24.0465 24.0307L22.8403 23.2805C22.7478 23.2238 22.3716 22.9869 21.826 22.6433C19.6159 21.2517 14.6275 18.1105 14.4705 18.1105Z" fill="#181818"/>
<path fill-rule="evenodd" clip-rule="evenodd" d="M48 24C48 37.2548 37.2548 48 24 48C10.7452 48 0 37.2548 0 24C0 10.7452 10.7452 0 24 0C37.2548 0 48 10.7452 48 24ZM12 31.0317V17.4415C12 16.6457 12.4537 16 13.2867 16H34.4965C35.2986 16 35.7832 16.6302 35.7832 17.4415V31.0317C35.7832 31.7641 35.2413 32.3703 34.4965 32.3703H13.2867C12.5412 32.3703 12 31.7711 12 31.0317Z" fill="#181818"/>
</svg>
