<svg fill="none" height="48" viewBox="0 0 48 48" width="48" xmlns="http://www.w3.org/2000/svg"><path clip-rule="evenodd" d="m24 48c13.2548 0 24-10.7452 24-24s-10.7452-24-24-24-24 10.7452-24 24 10.7452 24 24 24zm0 0c-13.2459 0-24-10.7541-24-24s10.7541-24 24-24 24 10.7541 24 24-10.7541 24-24 24zm12.2-27.6623c0 7.6268-5.807 16.4271-16.4273 16.4271-3.2567 0-6.2978-.9578-8.8242-2.6101.455.0598.9099.0838 1.3769.0838 2.706 0 5.1964-.9219 7.172-2.4665-2.5264-.0478-4.6576-1.7122-5.3879-4.011.3591.0719.7183.1078 1.0895.1078.5268 0 1.0417-.0719 1.5206-.2035-2.6461-.5389-4.6336-2.8617-4.6336-5.6634v-.0718c.7782.431 1.6642.6944 2.6102.7183-1.5566-1.0297-2.5743-2.8017-2.5743-4.8012 0-1.0537.2873-2.0474.7783-2.8975 2.8495 3.4962 7.1001 5.795 11.9013 6.0345-.1077-.4191-.1557-.8621-.1557-1.317 0-3.1849 2.5862-5.7711 5.7711-5.7711 1.6643 0 3.1609.6944 4.2145 1.8199 1.3171-.2635 2.5503-.7423 3.6639-1.4008-.4311 1.3529-1.341 2.4783-2.5384 3.1967 1.1734-.1436 2.2869-.4549 3.3166-.9099-.7782 1.1614-1.7601 2.1791-2.8855 2.9933.012.2394.012.491.012.7424z" fill="#fff" fill-rule="evenodd"/></svg>