<svg width="48" height="48" viewBox="0 0 48 48" fill="none" xmlns="http://www.w3.org/2000/svg">
<path fill-rule="evenodd" clip-rule="evenodd" d="M24 0C37.2459 0 48 10.7541 48 24C48 37.2459 37.2459 48 24 48C10.7541 48 0 37.2459 0 24C0 10.7541 10.7541 0 24 0ZM24 9C19.9263 9 19.4154 9.01725 17.8155 9.09028C16.2189 9.16313 15.1285 9.41672 14.1743 9.7875C13.188 10.1708 12.3515 10.6838 11.5176 11.5177C10.6837 12.3516 10.1708 13.1881 9.78741 14.1744C9.41663 15.1285 9.16313 16.2189 9.09019 17.8155C9.01725 19.4154 9 19.9263 9 24C9 28.0737 9.01725 28.5846 9.09019 30.1845C9.16313 31.7811 9.41663 32.8715 9.78741 33.8256C10.1708 34.8119 10.6837 35.6484 11.5176 36.4824C12.3515 37.3163 13.188 37.8293 14.1743 38.2126C15.1285 38.5833 16.2189 38.8369 17.8155 38.9097C19.4154 38.9827 19.9263 39 24 39C28.0737 39 28.5846 38.9827 30.1845 38.9097C31.7811 38.8369 32.8715 38.5833 33.8256 38.2126C34.8119 37.8293 35.6484 37.3163 36.4824 36.4824C37.3163 35.6484 37.8293 34.8119 38.2126 33.8256C38.5833 32.8715 38.8369 31.7811 38.9097 30.1845C38.9827 28.5846 39 28.0737 39 24C39 19.9263 38.9827 19.4154 38.9097 17.8155C38.8369 16.2189 38.5833 15.1285 38.2126 14.1744C37.8293 13.1881 37.3163 12.3516 36.4824 11.5177C35.6484 10.6838 34.8119 10.1708 33.8256 9.7875C32.8715 9.41672 31.7811 9.16313 30.1845 9.09028C28.5846 9.01725 28.0737 9 24 9ZM24 11.7027C28.0052 11.7027 28.4796 11.718 30.0613 11.7902C31.5238 11.8569 32.318 12.1012 32.8465 12.3067C33.5467 12.5787 34.0464 12.9038 34.5713 13.4288C35.0963 13.9536 35.4213 14.4533 35.6933 15.1535C35.8988 15.682 36.1432 16.4762 36.2098 17.9387C36.282 19.5204 36.2973 19.9948 36.2973 24C36.2973 28.0052 36.282 28.4796 36.2098 30.0613C36.1432 31.5238 35.8988 32.318 35.6933 32.8465C35.4213 33.5467 35.0963 34.0464 34.5713 34.5713C34.0464 35.0963 33.5467 35.4213 32.8465 35.6933C32.318 35.8988 31.5238 36.1432 30.0613 36.2098C28.4798 36.282 28.0055 36.2973 24 36.2973C19.9945 36.2973 19.5203 36.282 17.9387 36.2098C16.4762 36.1432 15.682 35.8988 15.1535 35.6933C14.4532 35.4213 13.9536 35.0963 13.4287 34.5713C12.9037 34.0464 12.5787 33.5467 12.3067 32.8465C12.1012 32.318 11.8568 31.5238 11.7901 30.0613C11.7179 28.4796 11.7027 28.0052 11.7027 24C11.7027 19.9948 11.7179 19.5204 11.7901 17.9387C11.8568 16.4762 12.1012 15.682 12.3067 15.1535C12.5787 14.4533 12.9037 13.9536 13.4287 13.4288C13.9536 12.9038 14.4532 12.5787 15.1535 12.3067C15.682 12.1012 16.4762 11.8569 17.9387 11.7902C19.5204 11.718 19.9948 11.7027 24 11.7027ZM24 16.2973C19.7459 16.2973 16.2973 19.7459 16.2973 24C16.2973 28.2541 19.7459 31.7027 24 31.7027C28.2541 31.7027 31.7027 28.2541 31.7027 24C31.7027 19.7459 28.2541 16.2973 24 16.2973ZM24 29C21.2386 29 19 26.7614 19 24C19 21.2386 21.2386 19 24 19C26.7614 19 29 21.2386 29 24C29 26.7614 26.7614 29 24 29ZM33.8071 15.993C33.8071 16.9871 33.0011 17.7929 32.007 17.7929C31.013 17.7929 30.2071 16.9871 30.2071 15.993C30.2071 14.9989 31.013 14.193 32.007 14.193C33.0011 14.193 33.8071 14.9989 33.8071 15.993Z" fill="#181818"/>
</svg>
