<svg fill="none" height="48" viewBox="0 0 48 48" width="48" xmlns="http://www.w3.org/2000/svg"><path clip-rule="evenodd" d="m17.8155 9.09028c1.5999-.07303 2.1108-.09028 6.1845-.09028s4.5846.01725 6.1845.09028c1.5966.07285 2.687.32644 3.6411.69722.9863.3833 1.8228.8963 2.6568 1.7302.8339.8339 1.3469 1.6704 1.7302 2.6567.3707.9541.6243 2.0445.6971 3.6411.073 1.5999.0903 2.1108.0903 6.1845s-.0173 4.5846-.0903 6.1845c-.0728 1.5966-.3264 2.687-.6971 3.6411-.3833.9863-.8963 1.8228-1.7302 2.6568-.834.8339-1.6705 1.3469-2.6568 1.7302-.9541.3707-2.0445.6243-3.6411.6971-1.5999.073-2.1108.0903-6.1845.0903s-4.5846-.0173-6.1845-.0903c-1.5966-.0728-2.687-.3264-3.6412-.6971-.9863-.3833-1.8228-.8963-2.6567-1.7302-.8339-.834-1.3468-1.6705-1.73019-2.6568-.37078-.9541-.62428-2.0445-.69722-3.6411-.07294-1.5999-.09019-2.1108-.09019-6.1845s.01725-4.5846.09019-6.1845c.07294-1.5966.32644-2.687.69722-3.6411.38339-.9863.89629-1.8228 1.73019-2.6567s1.6704-1.3469 2.6567-1.7302c.9542-.37078 2.0446-.62437 3.6412-.69722zm12.2458 2.69992c-1.5817-.0722-2.0561-.0875-6.0613-.0875s-4.4796.0153-6.0613.0875c-1.4625.0667-2.2567.311-2.7852.5165-.7003.272-1.1999.5971-1.7248 1.1221-.525.5248-.85 1.0245-1.122 1.7247-.2055.5285-.4499 1.3227-.5166 2.7852-.0722 1.5817-.0874 2.0561-.0874 6.0613s.0152 4.4796.0874 6.0613c.0667 1.4625.3111 2.2567.5166 2.7852.272.7002.597 1.1999 1.122 1.7248.5249.525 1.0245.85 1.7248 1.122.5285.2055 1.3227.4499 2.7852.5165 1.5816.0722 2.0558.0875 6.0613.0875s4.4798-.0153 6.0613-.0875c1.4625-.0666 2.2567-.311 2.7852-.5165.7002-.272 1.1999-.597 1.7248-1.122.525-.5249.85-1.0246 1.122-1.7248.2055-.5285.4499-1.3227.5165-2.7852.0722-1.5817.0875-2.0561.0875-6.0613s-.0153-4.4796-.0875-6.0613c-.0666-1.4625-.311-2.2567-.5165-2.7852-.272-.7002-.597-1.1999-1.122-1.7247-.5249-.525-1.0246-.8501-1.7248-1.1221-.5285-.2055-1.3227-.4498-2.7852-.5165zm-13.764 12.2098c0-4.2541 3.4486-7.7027 7.7027-7.7027s7.7027 3.4486 7.7027 7.7027-3.4486 7.7027-7.7027 7.7027-7.7027-3.4486-7.7027-7.7027zm2.7027 0c0 2.7614 2.2386 5 5 5s5-2.2386 5-5-2.2386-5-5-5-5 2.2386-5 5zm13.007-6.2071c.9941 0 1.8001-.8058 1.8001-1.7999s-.806-1.8-1.8001-1.8c-.994 0-1.7999.8059-1.7999 1.8s.8059 1.7999 1.7999 1.7999z" fill="#fff" fill-rule="evenodd"/></svg>