<svg fill="none" height="32" viewBox="0 0 32 32" width="32" xmlns="http://www.w3.org/2000/svg"><g fill="#fff"><path d="m9.64697 12.0736c-.2111 0-.34323.1249-.34323.3433 0 .1845.14219.2654.27462.3408.01534.0087.03054.0174.04538.0261.39546.2326 1.53006.949 2.73316 1.7087 1.691 1.0676 3.5173 2.2207 3.6168 2.2361.1396.0212.3218-.104.4325-.1801.0105-.0072.0203-.014.0294-.0202.5792-.3697 1.1601-.7455 1.7423-1.1221 1.2317-.7968 2.469-1.5972 3.7065-2.3514.0375-.0229.0776-.0467.119-.0712.2788-.1653.6165-.3654.6165-.5667 0-.2184-.1316-.3433-.3433-.3433-.1118 0-3.566 2.2261-4.9522 3.1194-.2518.1623-.4353.2805-.5182.3335-.1332.0893-.2644.1707-.3943.2513-.1278.0794-.2545.158-.3809.2427l-.8042-.5002c-.0616-.0378-.3124-.1957-.6762-.4248-1.4733-.9277-4.79891-3.0219-4.90363-3.0219z"/><path clip-rule="evenodd" d="m32 16c0 8.8366-7.1634 16-16 16-8.83656 0-16-7.1634-16-16 0-8.83656 7.16344-16 16-16 8.8366 0 16 7.16344 16 16zm-24 4.6878v-9.0601c0-.5306.30245-.961.85781-.961h14.13989c.5347 0 .8578.4201.8578.961v9.0601c0 .4883-.3613.8924-.8578.8924h-14.13989c-.49704 0-.85781-.3995-.85781-.8924z" fill-rule="evenodd"/></g></svg>